# Low-poly PS1-style barrel
# vertices: 72, triangles: 140
v 1.00000 -1.00000 0.00000
v 0.80902 -1.00000 0.58779
v 0.30902 -1.00000 0.95106
v -0.30902 -1.00000 0.95106
v -0.80902 -1.00000 0.58779
v -1.00000 -1.00000 0.00000
v -0.80902 -1.00000 -0.58779
v -0.30902 -1.00000 -0.95106
v 0.30902 -1.00000 -0.95106
v 0.80902 -1.00000 -0.58779
v 1.22000 -0.66667 0.00000
v 0.98700 -0.66667 0.71710
v 0.37700 -0.66667 1.16029
v -0.37700 -0.66667 1.16029
v -0.98700 -0.66667 0.71710
v -1.22000 -0.66667 0.00000
v -0.98700 -0.66667 -0.71710
v -0.37700 -0.66667 -1.16029
v 0.37700 -0.66667 -1.16029
v 0.98700 -0.66667 -0.71710
v 1.25981 -0.33333 0.00000
v 1.01921 -0.33333 0.74050
v 0.38930 -0.33333 1.19815
v -0.38930 -0.33333 1.19815
v -1.01921 -0.33333 0.74050
v -1.25981 -0.33333 0.00000
v -1.01921 -0.33333 -0.74050
v -0.38930 -0.33333 -1.19815
v 0.38930 -0.33333 -1.19815
v 1.01921 -0.33333 -0.74050
v 1.37000 0.00000 0.00000
v 1.10835 0.00000 0.80527
v 0.42335 0.00000 1.30295
v -0.42335 0.00000 1.30295
v -1.10835 0.00000 0.80527
v -1.37000 0.00000 0.00000
v -1.10835 0.00000 -0.80527
v -0.42335 0.00000 -1.30295
v 0.42335 0.00000 -1.30295
v 1.10835 0.00000 -0.80527
v 1.25981 0.33333 0.00000
v 1.01921 0.33333 0.74050
v 0.38930 0.33333 1.19815
v -0.38930 0.33333 1.19815
v -1.01921 0.33333 0.74050
v -1.25981 0.33333 0.00000
v -1.01921 0.33333 -0.74050
v -0.38930 0.33333 -1.19815
v 0.38930 0.33333 -1.19815
v 1.01921 0.33333 -0.74050
v 1.22000 0.66667 0.00000
v 0.98700 0.66667 0.71710
v 0.37700 0.66667 1.16029
v -0.37700 0.66667 1.16029
v -0.98700 0.66667 0.71710
v -1.22000 0.66667 0.00000
v -0.98700 0.66667 -0.71710
v -0.37700 0.66667 -1.16029
v 0.37700 0.66667 -1.16029
v 0.98700 0.66667 -0.71710
v 1.00000 1.00000 0.00000
v 0.80902 1.00000 0.58779
v 0.30902 1.00000 0.95106
v -0.30902 1.00000 0.95106
v -0.80902 1.00000 0.58779
v -1.00000 1.00000 0.00000
v -0.80902 1.00000 -0.58779
v -0.30902 1.00000 -0.95106
v 0.30902 1.00000 -0.95106
v 0.80902 1.00000 -0.58779
v 0.00000 -1.00000 0.00000
v 0.00000 1.00000 0.00000
o Barrel
f 1 12 2
f 1 11 12
f 2 13 3
f 2 12 13
f 3 14 4
f 3 13 14
f 4 15 5
f 4 14 15
f 5 16 6
f 5 15 16
f 6 17 7
f 6 16 17
f 7 18 8
f 7 17 18
f 8 19 9
f 8 18 19
f 9 20 10
f 9 19 20
f 10 11 1
f 10 20 11
f 11 22 12
f 11 21 22
f 12 23 13
f 12 22 23
f 13 24 14
f 13 23 24
f 14 25 15
f 14 24 25
f 15 26 16
f 15 25 26
f 16 27 17
f 16 26 27
f 17 28 18
f 17 27 28
f 18 29 19
f 18 28 29
f 19 30 20
f 19 29 30
f 20 21 11
f 20 30 21
f 21 32 22
f 21 31 32
f 22 33 23
f 22 32 33
f 23 34 24
f 23 33 34
f 24 35 25
f 24 34 35
f 25 36 26
f 25 35 36
f 26 37 27
f 26 36 37
f 27 38 28
f 27 37 38
f 28 39 29
f 28 38 39
f 29 40 30
f 29 39 40
f 30 31 21
f 30 40 31
f 31 42 32
f 31 41 42
f 32 43 33
f 32 42 43
f 33 44 34
f 33 43 44
f 34 45 35
f 34 44 45
f 35 46 36
f 35 45 46
f 36 47 37
f 36 46 47
f 37 48 38
f 37 47 48
f 38 49 39
f 38 48 49
f 39 50 40
f 39 49 50
f 40 41 31
f 40 50 41
f 41 52 42
f 41 51 52
f 42 53 43
f 42 52 53
f 43 54 44
f 43 53 54
f 44 55 45
f 44 54 55
f 45 56 46
f 45 55 56
f 46 57 47
f 46 56 57
f 47 58 48
f 47 57 58
f 48 59 49
f 48 58 59
f 49 60 50
f 49 59 60
f 50 51 41
f 50 60 51
f 51 62 52
f 51 61 62
f 52 63 53
f 52 62 63
f 53 64 54
f 53 63 64
f 54 65 55
f 54 64 65
f 55 66 56
f 55 65 66
f 56 67 57
f 56 66 67
f 57 68 58
f 57 67 68
f 58 69 59
f 58 68 69
f 59 70 60
f 59 69 70
f 60 61 51
f 60 70 61
f 71 1 2
f 71 2 3
f 71 3 4
f 71 4 5
f 71 5 6
f 71 6 7
f 71 7 8
f 71 8 9
f 71 9 10
f 71 10 1
f 72 62 61
f 72 63 62
f 72 64 63
f 72 65 64
f 72 66 65
f 72 67 66
f 72 68 67
f 72 69 68
f 72 70 69
f 72 61 70
