# Low-poly PS1-style crate
# vertices: 66, triangles: 128
v -1.00000 -1.00000 -1.00000
v 0.00000 -1.00000 -1.00000
v 1.00000 -1.00000 -1.00000
v 1.00000 -1.00000 0.00000
v 1.00000 -1.00000 1.00000
v 0.00000 -1.00000 1.00000
v -1.00000 -1.00000 1.00000
v -1.00000 -1.00000 0.00000
v -1.00000 -0.50000 -1.00000
v 0.00000 -0.50000 -1.00000
v 1.00000 -0.50000 -1.00000
v 1.00000 -0.50000 0.00000
v 1.00000 -0.50000 1.00000
v 0.00000 -0.50000 1.00000
v -1.00000 -0.50000 1.00000
v -1.00000 -0.50000 0.00000
v -0.96000 -0.50000 -0.96000
v 0.00000 -0.50000 -0.96000
v 0.96000 -0.50000 -0.96000
v 0.96000 -0.50000 0.00000
v 0.96000 -0.50000 0.96000
v 0.00000 -0.50000 0.96000
v -0.96000 -0.50000 0.96000
v -0.96000 -0.50000 0.00000
v -0.96000 0.00000 -0.96000
v 0.00000 0.00000 -0.96000
v 0.96000 0.00000 -0.96000
v 0.96000 0.00000 0.00000
v 0.96000 0.00000 0.96000
v 0.00000 0.00000 0.96000
v -0.96000 0.00000 0.96000
v -0.96000 0.00000 0.00000
v -1.00000 0.00000 -1.00000
v 0.00000 0.00000 -1.00000
v 1.00000 0.00000 -1.00000
v 1.00000 0.00000 0.00000
v 1.00000 0.00000 1.00000
v 0.00000 0.00000 1.00000
v -1.00000 0.00000 1.00000
v -1.00000 0.00000 0.00000
v -1.00000 0.50000 -1.00000
v 0.00000 0.50000 -1.00000
v 1.00000 0.50000 -1.00000
v 1.00000 0.50000 0.00000
v 1.00000 0.50000 1.00000
v 0.00000 0.50000 1.00000
v -1.00000 0.50000 1.00000
v -1.00000 0.50000 0.00000
v -0.96000 0.50000 -0.96000
v 0.00000 0.50000 -0.96000
v 0.96000 0.50000 -0.96000
v 0.96000 0.50000 0.00000
v 0.96000 0.50000 0.96000
v 0.00000 0.50000 0.96000
v -0.96000 0.50000 0.96000
v -0.96000 0.50000 0.00000
v -1.00000 1.00000 -1.00000
v 0.00000 1.00000 -1.00000
v 1.00000 1.00000 -1.00000
v 1.00000 1.00000 0.00000
v 1.00000 1.00000 1.00000
v 0.00000 1.00000 1.00000
v -1.00000 1.00000 1.00000
v -1.00000 1.00000 0.00000
v 0.00000 -1.00000 0.00000
v 0.00000 1.00000 0.00000
o Crate
f 1 10 2
f 1 9 10
f 2 11 3
f 2 10 11
f 3 12 4
f 3 11 12
f 4 13 5
f 4 12 13
f 5 14 6
f 5 13 14
f 6 15 7
f 6 14 15
f 7 16 8
f 7 15 16
f 8 9 1
f 8 16 9
f 9 18 10
f 9 17 18
f 10 19 11
f 10 18 19
f 11 20 12
f 11 19 20
f 12 21 13
f 12 20 21
f 13 22 14
f 13 21 22
f 14 23 15
f 14 22 23
f 15 24 16
f 15 23 24
f 16 17 9
f 16 24 17
f 17 26 18
f 17 25 26
f 18 27 19
f 18 26 27
f 19 28 20
f 19 27 28
f 20 29 21
f 20 28 29
f 21 30 22
f 21 29 30
f 22 31 23
f 22 30 31
f 23 32 24
f 23 31 32
f 24 25 17
f 24 32 25
f 25 34 26
f 25 33 34
f 26 35 27
f 26 34 35
f 27 36 28
f 27 35 36
f 28 37 29
f 28 36 37
f 29 38 30
f 29 37 38
f 30 39 31
f 30 38 39
f 31 40 32
f 31 39 40
f 32 33 25
f 32 40 33
f 33 42 34
f 33 41 42
f 34 43 35
f 34 42 43
f 35 44 36
f 35 43 44
f 36 45 37
f 36 44 45
f 37 46 38
f 37 45 46
f 38 47 39
f 38 46 47
f 39 48 40
f 39 47 48
f 40 41 33
f 40 48 41
f 41 50 42
f 41 49 50
f 42 51 43
f 42 50 51
f 43 52 44
f 43 51 52
f 44 53 45
f 44 52 53
f 45 54 46
f 45 53 54
f 46 55 47
f 46 54 55
f 47 56 48
f 47 55 56
f 48 49 41
f 48 56 49
f 49 58 50
f 49 57 58
f 50 59 51
f 50 58 59
f 51 60 52
f 51 59 60
f 52 61 53
f 52 60 61
f 53 62 54
f 53 61 62
f 54 63 55
f 54 62 63
f 55 64 56
f 55 63 64
f 56 57 49
f 56 64 57
f 65 1 2
f 65 2 3
f 65 3 4
f 65 4 5
f 65 5 6
f 65 6 7
f 65 7 8
f 65 8 1
f 66 58 57
f 66 59 58
f 66 60 59
f 66 61 60
f 66 62 61
f 66 63 62
f 66 64 63
f 66 57 64
