# ESP32-friendly low-poly crystal
# Triangle-only OBJ: v + f
v 0.623538 0.360000 -0.950000
v 0.623538 0.360000 0.450000
v 0.242487 0.140000 1.050000
v 0.000000 0.720000 -0.950000
v 0.000000 0.720000 0.450000
v 0.000000 0.280000 1.050000
v -0.623538 0.360000 -0.950000
v -0.623538 0.360000 0.450000
v -0.242487 0.140000 1.050000
v -0.623538 -0.360000 -0.950000
v -0.623538 -0.360000 0.450000
v -0.242487 -0.140000 1.050000
v -0.000000 -0.720000 -0.950000
v -0.000000 -0.720000 0.450000
v -0.000000 -0.280000 1.050000
v 0.623538 -0.360000 -0.950000
v 0.623538 -0.360000 0.450000
v 0.242487 -0.140000 1.050000
v 0.000000 0.000000 -0.950000
v 0.000000 0.000000 1.050000
f 19 4 1
f 19 7 4
f 19 10 7
f 19 13 10
f 19 16 13
f 19 1 16
f 1 4 5
f 1 5 2
f 4 7 8
f 4 8 5
f 7 10 11
f 7 11 8
f 10 13 14
f 10 14 11
f 13 16 17
f 13 17 14
f 16 1 2
f 16 2 17
f 2 5 6
f 2 6 3
f 5 8 9
f 5 9 6
f 8 11 12
f 8 12 9
f 11 14 15
f 11 15 12
f 14 17 18
f 14 18 15
f 17 2 3
f 17 3 18
f 3 6 20
f 6 9 20
f 9 12 20
f 12 15 20
f 15 18 20
f 18 3 20
