# Low-poly PS1-style love heart
# vertices: 104, triangles: 204
v 0.00000 -0.47395 -0.30000
v 0.01118 -0.53157 -0.30000
v 0.08190 -0.66694 -0.30000
v 0.23794 -0.79194 -0.30000
v 0.45485 -0.82321 -0.30000
v 0.66703 -0.72909 -0.30000
v 0.79828 -0.53747 -0.30000
v 0.79828 -0.30530 -0.30000
v 0.66703 -0.07825 -0.30000
v 0.45485 0.12812 -0.30000
v 0.23794 0.31648 -0.30000
v 0.08190 0.48259 -0.30000
v 0.01118 0.60320 -0.30000
v -0.00000 0.64805 -0.30000
v -0.01118 0.60320 -0.30000
v -0.08190 0.48259 -0.30000
v -0.23794 0.31648 -0.30000
v -0.45485 0.12812 -0.30000
v -0.66703 -0.07825 -0.30000
v -0.79828 -0.30530 -0.30000
v -0.79828 -0.53747 -0.30000
v -0.66703 -0.72909 -0.30000
v -0.45485 -0.82321 -0.30000
v -0.23794 -0.79194 -0.30000
v -0.08190 -0.66694 -0.30000
v -0.01118 -0.53157 -0.30000
v 0.00000 -0.64395 -0.12000
v 0.01864 -0.73999 -0.12000
v 0.13650 -0.96560 -0.12000
v 0.39657 -1.17393 -0.12000
v 0.75808 -1.22605 -0.12000
v 1.11172 -1.06919 -0.12000
v 1.33047 -0.74981 -0.12000
v 1.33047 -0.36286 -0.12000
v 1.11172 0.01555 -0.12000
v 0.75808 0.35949 -0.12000
v 0.39657 0.67342 -0.12000
v 0.13650 0.95027 -0.12000
v 0.01864 1.15130 -0.12000
v -0.00000 1.22605 -0.12000
v -0.01864 1.15130 -0.12000
v -0.13650 0.95027 -0.12000
v -0.39657 0.67342 -0.12000
v -0.75808 0.35949 -0.12000
v -1.11172 0.01555 -0.12000
v -1.33047 -0.36286 -0.12000
v -1.33047 -0.74981 -0.12000
v -1.11172 -1.06919 -0.12000
v -0.75808 -1.22605 -0.12000
v -0.39657 -1.17393 -0.12000
v -0.13650 -0.96560 -0.12000
v -0.01864 -0.73999 -0.12000
v 0.00000 -0.64395 0.12000
v 0.01864 -0.73999 0.12000
v 0.13650 -0.96560 0.12000
v 0.39657 -1.17393 0.12000
v 0.75808 -1.22605 0.12000
v 1.11172 -1.06919 0.12000
v 1.33047 -0.74981 0.12000
v 1.33047 -0.36286 0.12000
v 1.11172 0.01555 0.12000
v 0.75808 0.35949 0.12000
v 0.39657 0.67342 0.12000
v 0.13650 0.95027 0.12000
v 0.01864 1.15130 0.12000
v -0.00000 1.22605 0.12000
v -0.01864 1.15130 0.12000
v -0.13650 0.95027 0.12000
v -0.39657 0.67342 0.12000
v -0.75808 0.35949 0.12000
v -1.11172 0.01555 0.12000
v -1.33047 -0.36286 0.12000
v -1.33047 -0.74981 0.12000
v -1.11172 -1.06919 0.12000
v -0.75808 -1.22605 0.12000
v -0.39657 -1.17393 0.12000
v -0.13650 -0.96560 0.12000
v -0.01864 -0.73999 0.12000
v 0.00000 -0.47395 0.30000
v 0.01118 -0.53157 0.30000
v 0.08190 -0.66694 0.30000
v 0.23794 -0.79194 0.30000
v 0.45485 -0.82321 0.30000
v 0.66703 -0.72909 0.30000
v 0.79828 -0.53747 0.30000
v 0.79828 -0.30530 0.30000
v 0.66703 -0.07825 0.30000
v 0.45485 0.12812 0.30000
v 0.23794 0.31648 0.30000
v 0.08190 0.48259 0.30000
v 0.01118 0.60320 0.30000
v -0.00000 0.64805 0.30000
v -0.01118 0.60320 0.30000
v -0.08190 0.48259 0.30000
v -0.23794 0.31648 0.30000
v -0.45485 0.12812 0.30000
v -0.66703 -0.07825 0.30000
v -0.79828 -0.30530 0.30000
v -0.79828 -0.53747 0.30000
v -0.66703 -0.72909 0.30000
v -0.45485 -0.82321 0.30000
v -0.23794 -0.79194 0.30000
v -0.08190 -0.66694 0.30000
v -0.01118 -0.53157 0.30000
o Heart
f 1 2 28
f 1 28 27
f 2 3 29
f 2 29 28
f 3 4 30
f 3 30 29
f 4 5 31
f 4 31 30
f 5 6 32
f 5 32 31
f 6 7 33
f 6 33 32
f 7 8 34
f 7 34 33
f 8 9 35
f 8 35 34
f 9 10 36
f 9 36 35
f 10 11 37
f 10 37 36
f 11 12 38
f 11 38 37
f 12 13 39
f 12 39 38
f 13 14 40
f 13 40 39
f 14 15 41
f 14 41 40
f 15 16 42
f 15 42 41
f 16 17 43
f 16 43 42
f 17 18 44
f 17 44 43
f 18 19 45
f 18 45 44
f 19 20 46
f 19 46 45
f 20 21 47
f 20 47 46
f 21 22 48
f 21 48 47
f 22 23 49
f 22 49 48
f 23 24 50
f 23 50 49
f 24 25 51
f 24 51 50
f 25 26 52
f 25 52 51
f 26 1 27
f 26 27 52
f 27 28 54
f 27 54 53
f 28 29 55
f 28 55 54
f 29 30 56
f 29 56 55
f 30 31 57
f 30 57 56
f 31 32 58
f 31 58 57
f 32 33 59
f 32 59 58
f 33 34 60
f 33 60 59
f 34 35 61
f 34 61 60
f 35 36 62
f 35 62 61
f 36 37 63
f 36 63 62
f 37 38 64
f 37 64 63
f 38 39 65
f 38 65 64
f 39 40 66
f 39 66 65
f 40 41 67
f 40 67 66
f 41 42 68
f 41 68 67
f 42 43 69
f 42 69 68
f 43 44 70
f 43 70 69
f 44 45 71
f 44 71 70
f 45 46 72
f 45 72 71
f 46 47 73
f 46 73 72
f 47 48 74
f 47 74 73
f 48 49 75
f 48 75 74
f 49 50 76
f 49 76 75
f 50 51 77
f 50 77 76
f 51 52 78
f 51 78 77
f 52 27 53
f 52 53 78
f 53 54 80
f 53 80 79
f 54 55 81
f 54 81 80
f 55 56 82
f 55 82 81
f 56 57 83
f 56 83 82
f 57 58 84
f 57 84 83
f 58 59 85
f 58 85 84
f 59 60 86
f 59 86 85
f 60 61 87
f 60 87 86
f 61 62 88
f 61 88 87
f 62 63 89
f 62 89 88
f 63 64 90
f 63 90 89
f 64 65 91
f 64 91 90
f 65 66 92
f 65 92 91
f 66 67 93
f 66 93 92
f 67 68 94
f 67 94 93
f 68 69 95
f 68 95 94
f 69 70 96
f 69 96 95
f 70 71 97
f 70 97 96
f 71 72 98
f 71 98 97
f 72 73 99
f 72 99 98
f 73 74 100
f 73 100 99
f 74 75 101
f 74 101 100
f 75 76 102
f 75 102 101
f 76 77 103
f 76 103 102
f 77 78 104
f 77 104 103
f 78 53 79
f 78 79 104
f 2 1 3
f 3 1 4
f 4 1 5
f 5 1 6
f 6 1 7
f 7 1 8
f 8 1 9
f 9 1 10
f 10 1 11
f 11 1 12
f 1 26 12
f 12 26 13
f 13 26 14
f 14 26 15
f 15 26 16
f 16 26 17
f 17 26 18
f 18 26 19
f 19 26 20
f 20 26 21
f 21 26 22
f 22 26 23
f 23 26 24
f 25 24 26
f 79 80 81
f 79 81 82
f 79 82 83
f 79 83 84
f 79 84 85
f 79 85 86
f 79 86 87
f 79 87 88
f 79 88 89
f 79 89 90
f 104 79 90
f 104 90 91
f 104 91 92
f 104 92 93
f 104 93 94
f 104 94 95
f 104 95 96
f 104 96 97
f 104 97 98
f 104 98 99
f 104 99 100
f 104 100 101
f 104 101 102
f 102 103 104
