# ESP32-friendly low-poly retro rocket
# Triangle-only OBJ: v + f
v 0.405689 0.108704 -1.050000
v 0.296985 0.296985 -1.050000
v 0.108704 0.405689 -1.050000
v -0.108704 0.405689 -1.050000
v -0.296985 0.296985 -1.050000
v -0.405689 0.108704 -1.050000
v -0.405689 -0.108704 -1.050000
v -0.296985 -0.296985 -1.050000
v -0.108704 -0.405689 -1.050000
v 0.108704 -0.405689 -1.050000
v 0.296985 -0.296985 -1.050000
v 0.405689 -0.108704 -1.050000
v 0.482963 0.129410 -0.820000
v 0.353553 0.353553 -0.820000
v 0.129410 0.482963 -0.820000
v -0.129410 0.482963 -0.820000
v -0.353553 0.353553 -0.820000
v -0.482963 0.129410 -0.820000
v -0.482963 -0.129410 -0.820000
v -0.353553 -0.353553 -0.820000
v -0.129410 -0.482963 -0.820000
v 0.129410 -0.482963 -0.820000
v 0.353553 -0.353553 -0.820000
v 0.482963 -0.129410 -0.820000
v 0.482963 0.129410 0.480000
v 0.353553 0.353553 0.480000
v 0.129410 0.482963 0.480000
v -0.129410 0.482963 0.480000
v -0.353553 0.353553 0.480000
v -0.482963 0.129410 0.480000
v -0.482963 -0.129410 0.480000
v -0.353553 -0.353553 0.480000
v -0.129410 -0.482963 0.480000
v 0.129410 -0.482963 0.480000
v 0.353553 -0.353553 0.480000
v 0.482963 -0.129410 0.480000
v 0.425007 0.113880 0.660000
v 0.311127 0.311127 0.660000
v 0.113880 0.425007 0.660000
v -0.113880 0.425007 0.660000
v -0.311127 0.311127 0.660000
v -0.425007 0.113880 0.660000
v -0.425007 -0.113880 0.660000
v -0.311127 -0.311127 0.660000
v -0.113880 -0.425007 0.660000
v 0.113880 -0.425007 0.660000
v 0.311127 -0.311127 0.660000
v 0.425007 -0.113880 0.660000
v 0.000000 0.000000 1.420000
v 0.000000 0.000000 -1.050000
v 0.400000 -0.160000 -0.820000
v 0.400000 0.160000 -0.820000
v 0.940000 0.050000 -0.990000
v 0.940000 0.020000 -0.380000
v 0.400000 0.120000 -0.380000
v 0.400000 -0.120000 -0.380000
v 0.160000 0.400000 -0.820000
v -0.160000 0.400000 -0.820000
v -0.050000 0.940000 -0.990000
v -0.020000 0.940000 -0.380000
v -0.120000 0.400000 -0.380000
v 0.120000 0.400000 -0.380000
v -0.400000 0.160000 -0.820000
v -0.400000 -0.160000 -0.820000
v -0.940000 -0.050000 -0.990000
v -0.940000 -0.020000 -0.380000
v -0.400000 -0.120000 -0.380000
v -0.400000 0.120000 -0.380000
v -0.160000 -0.400000 -0.820000
v 0.160000 -0.400000 -0.820000
v 0.050000 -0.940000 -0.990000
v 0.020000 -0.940000 -0.380000
v 0.120000 -0.400000 -0.380000
v -0.120000 -0.400000 -0.380000
v 0.267925 0.110978 -1.180000
v 0.184776 0.076537 -1.220000
v 0.110978 0.267925 -1.180000
v 0.076537 0.184776 -1.220000
v -0.110978 0.267925 -1.180000
v -0.076537 0.184776 -1.220000
v -0.267925 0.110978 -1.180000
v -0.184776 0.076537 -1.220000
v -0.267925 -0.110978 -1.180000
v -0.184776 -0.076537 -1.220000
v -0.110978 -0.267925 -1.180000
v -0.076537 -0.184776 -1.220000
v 0.110978 -0.267925 -1.180000
v 0.076537 -0.184776 -1.220000
v 0.267925 -0.110978 -1.180000
v 0.184776 -0.076537 -1.220000
v 0.000000 0.000000 -1.420000
v 0.184776 0.076537 -1.220000
v 0.076537 0.184776 -1.220000
v -0.076537 0.184776 -1.220000
v -0.184776 0.076537 -1.220000
v -0.184776 -0.076537 -1.220000
v -0.076537 -0.184776 -1.220000
v 0.076537 -0.184776 -1.220000
v 0.184776 -0.076537 -1.220000
f 1 13 14
f 1 14 2
f 2 14 15
f 2 15 3
f 3 15 16
f 3 16 4
f 4 16 17
f 4 17 5
f 5 17 18
f 5 18 6
f 6 18 19
f 6 19 7
f 7 19 20
f 7 20 8
f 8 20 21
f 8 21 9
f 9 21 22
f 9 22 10
f 10 22 23
f 10 23 11
f 11 23 24
f 11 24 12
f 12 24 13
f 12 13 1
f 13 25 26
f 13 26 14
f 14 26 27
f 14 27 15
f 15 27 28
f 15 28 16
f 16 28 29
f 16 29 17
f 17 29 30
f 17 30 18
f 18 30 31
f 18 31 19
f 19 31 32
f 19 32 20
f 20 32 33
f 20 33 21
f 21 33 34
f 21 34 22
f 22 34 35
f 22 35 23
f 23 35 36
f 23 36 24
f 24 36 25
f 24 25 13
f 25 37 38
f 25 38 26
f 26 38 39
f 26 39 27
f 27 39 40
f 27 40 28
f 28 40 41
f 28 41 29
f 29 41 42
f 29 42 30
f 30 42 43
f 30 43 31
f 31 43 44
f 31 44 32
f 32 44 45
f 32 45 33
f 33 45 46
f 33 46 34
f 34 46 47
f 34 47 35
f 35 47 48
f 35 48 36
f 36 48 37
f 36 37 25
f 37 49 38
f 38 49 39
f 39 49 40
f 40 49 41
f 41 49 42
f 42 49 43
f 43 49 44
f 44 49 45
f 45 49 46
f 46 49 47
f 47 49 48
f 48 49 37
f 50 2 1
f 50 3 2
f 50 4 3
f 50 5 4
f 50 6 5
f 50 7 6
f 50 8 7
f 50 9 8
f 50 10 9
f 50 11 10
f 50 12 11
f 50 1 12
f 51 52 53
f 51 53 56
f 56 53 54
f 56 54 55
f 51 56 55
f 51 55 54
f 51 54 53
f 51 53 52
f 57 58 59
f 57 59 62
f 62 59 60
f 62 60 61
f 57 62 61
f 57 61 60
f 57 60 59
f 57 59 58
f 63 64 65
f 63 65 68
f 68 65 66
f 68 66 67
f 63 68 67
f 63 67 66
f 63 66 65
f 63 65 64
f 69 70 71
f 69 71 74
f 74 71 72
f 74 72 73
f 69 74 73
f 69 73 72
f 69 72 71
f 69 71 70
f 75 77 78
f 75 78 76
f 77 79 80
f 77 80 78
f 79 81 82
f 79 82 80
f 81 83 84
f 81 84 82
f 83 85 86
f 83 86 84
f 85 87 88
f 85 88 86
f 87 89 90
f 87 90 88
f 89 75 76
f 89 76 90
f 92 91 93
f 93 91 94
f 94 91 95
f 95 91 96
f 96 91 97
f 97 91 98
f 98 91 99
f 99 91 92
